# xmcd
#
# Track frame offsets:
#	150
#	37639
#	74132
#	111834
#	153544
#	186316
#	223179
#	264729
#	302208
#
# Disc length: 4479 seconds
#
# Revision: 1
# Processed by: cddbd v1.5.2PL0 Copyright (c) Steve Scherf et al.
# Submitted via: audiograbber 1.83.01
#
DISCID=88117d09
DTITLE=Various Artist - Peak Experience
DYEAR=1900
DGENRE=psytrance
TTITLE0=Mad Maxx - Peak Exerience
TTITLE1=Lauging Buddha - Destiny
TTITLE2=Dickster - Real Simulation
TTITLE3=Mad Maxx - Just Say Yes!!
TTITLE4=Laughing Buddha - One Drop
TTITLE5=Tristan - Distorted Reality
TTITLE6=Dickster - Beyond Worlds
TTITLE7=Laughing Buddha - Gene Machine
TTITLE8=Johan Bley - The Bomb
EXTD=
EXTT0=
EXTT1=
EXTT2=
EXTT3=
EXTT4=
EXTT5=
EXTT6=
EXTT7=
EXTT8=
PLAYORDER=
